Supernatural Season 8 Episode 8 [HDTV-x264]-MyTV.mp4

Screenshots:
 
http://imageshack.us/a/img402/9841/vlcsnap2012112915h26m30.png
 
http://imageshack.us/a/img685/2866/vlcsnap2012112915h26m33.png
 
http://imageshack.us/a/img600/8075/vlcsnap2012112915h26m42.png

NFO:

Format : MPEG-4
Format profile : Base Media
Codec ID : isom
File size : 272 MiB
Duration : 41mn 56s
Overall bit rate mode : Variable
Overall bit rate : 905 Kbps
Encoded date : UTC 2012-11-28 19:15:52
Tagged date : UTC 2012-11-28 19:15:52

Video
ID : 1
Format : AVC
Format/Info : Advanced Video Codec
Format profile : High@L3.1
Format settings, CABAC : Yes
Format settings, ReFrames : 5 frames
Codec ID : avc1
Codec ID/Info : Advanced Video Coding
Duration : 41mn 56s
Bit rate : 789 Kbps
Maximum bit rate : 4 168 Kbps
Width : 720 pixels
Height : 404 pixels
Display aspect ratio : 16:9
Frame rate mode : Constant
Frame rate : 23.976 fps
Color space : YUV
Chroma subsampling : 4:2:0
Bit depth : 8 bits
Scan type : Progressive
Bits/(Pixel*Frame) : 0.113
Stream size : 237 MiB (87%)
Writing library : x264 core 129 r2230 1cffe9f
Encoding settings : cabac=1 / ref=5 / deblock=1:1:1 / analyse=0x3:0x133 / me=umh / subme=9 / psy=1 / psy_rd=1.00:0.00 / mixed_ref=1 / me_range=16 / chroma_me=1 / trellis=2 / 8x8dct=1 / cqm=0 / deadzone=21,11 / fast_pskip=1 / chroma_qp_offset=-2 / threads=18 / lookahead_threads=3 / sliced_threads=0 / nr=0 / decimate=1 / interlaced=0 / bluray_compat=0 / constrained_intra=0 / bframes=3 / b_pyramid=2 / b_adapt=2 / b_bias=0 / direct=3 / weightb=1 / open_gop=0 / weightp=2 / keyint=250 / keyint_min=23 / scenecut=40 / intra_refresh=0 / rc_lookahead=60 / rc=crf / mbtree=1 / crf=20.0 / qcomp=0.60 / qpmin=0 / qpmax=69 / qpstep=4 / ip_ratio=1.40 / aq=1:1.00
Encoded date : UTC 2012-11-28 17:53:47
Tagged date : UTC 2012-11-28 19:15:59
Matrix coefficients : BT.709

Audio
ID : 2
Format : AAC
Format/Info : Advanced Audio Codec
Format profile : LC
Codec ID : 40
Duration : 41mn 56s
Bit rate mode : Variable
Bit rate : 113 Kbps
Maximum bit rate : 147 Kbps
Channel(s) : 2 channels
Channel positions : Front: L R
Sampling rate : 48.0 KHz
Compression mode : Lossy
Delay relative to video : 83ms
Stream size : 33.8 MiB (12%)
Encoded date : UTC 2012-11-28 19:15:59
Tagged date : UTC 2012-11-28 19:15:59